<svg width="25" height="25" viewBox="0 0 25 25" fill="none" xmlns="http://www.w3.org/2000/svg">
<path fill-rule="evenodd" clip-rule="evenodd" d="M15.4001 1.75999L12.6401 3.19999L9.88007 1.75999L8.20007 4.39999L5.08007 4.51999L4.96007 7.63999L2.32007 9.31999L3.76007 12.08L2.32007 14.84L4.96007 16.52L5.08007 19.64H8.20007L9.88007 22.4L12.6401 20.96L15.4001 22.4L17.0801 19.76L20.2001 19.64V16.52L22.9601 14.84L21.5201 12.08L22.9601 9.31999L20.3201 7.63999L20.2001 4.51999L17.0801 4.39999L15.4001 1.75999Z" fill="#3A88EF"/>
<path fill-rule="evenodd" clip-rule="evenodd" d="M12.6401 5.24001L14.6801 4.04001L16.0001 6.08001H18.4001V8.48001L20.5601 9.80001L19.3601 12.08L20.5601 14.12L18.5201 15.44V17.84H16.1201L14.6801 20L12.6401 18.8L10.4801 20L9.2801 17.96H6.8801L6.6401 15.56L4.7201 14.12L5.9201 12.08L4.6001 9.92001L6.6401 8.72001V6.32001L9.0401 6.08001L10.3601 4.16001L12.6401 5.36001V5.24001Z" fill="#3A88EF"/>
<path fill-rule="evenodd" clip-rule="evenodd" d="M15.5202 9.44L11.4402 13.52L9.76017 11.84L8.92017 12.8L10.4802 14.48L11.4402 15.44L12.4002 14.48L16.2402 10.4" fill="white"/>
</svg>
